<?xml version="1.0" encoding="UTF-8" standalone="no"?>
<svg
   enable-background="new 0 0 128 128"
   viewBox="0 0 128 128"
   version="1.1"
   id="svg11"
   sodipodi:docname="tan-logo.svg"
   inkscape:version="1.3.2 (091e20ef0f, 2023-11-25)"
   xmlns:inkscape="http://www.inkscape.org/namespaces/inkscape"
   xmlns:sodipodi="http://sodipodi.sourceforge.net/DTD/sodipodi-0.dtd"
   xmlns="http://www.w3.org/2000/svg"
   xmlns:svg="http://www.w3.org/2000/svg">
  <defs
     id="defs11" />
  <sodipodi:namedview
     id="namedview11"
     pagecolor="#ffffff"
     bordercolor="#000000"
     borderopacity="0.25"
     inkscape:showpageshadow="false"
     inkscape:pageopacity="0.0"
     inkscape:pagecheckerboard="0"
     inkscape:deskcolor="#d1d1d1"
     inkscape:zoom="6.4765625"
     inkscape:cx="64.077201"
     inkscape:cy="55.199035"
     inkscape:window-width="1920"
     inkscape:window-height="1011"
     inkscape:window-x="0"
     inkscape:window-y="32"
     inkscape:window-maximized="1"
     inkscape:current-layer="svg11" />
  <radialGradient
     id="a"
     cx="66.9643"
     cy="27.8118"
     gradientTransform="matrix(1,0,0,1.0804,0,-2.003)"
     gradientUnits="userSpaceOnUse"
     r="74.7506">
    <stop
       offset=".053"
       stop-color="#e92c6c"
       id="stop1" />
    <stop
       offset="1"
       stop-color="#f06a97"
       id="stop2" />
  </radialGradient>
  <linearGradient
     id="b"
     gradientUnits="userSpaceOnUse"
     x1="64.8851"
     x2="64.8851"
     y1="39.3546"
     y2="88.9513">
    <stop
       offset="0"
       stop-color="#c41b59"
       id="stop3" />
    <stop
       offset="1"
       stop-color="#c41b59"
       stop-opacity="0"
       id="stop4" />
  </linearGradient>
  <radialGradient
     id="c"
     cx="65.0723"
     cy="72.2201"
     gradientTransform="matrix(0.9546,0,0,0.5017,2.9166,34.3366)"
     gradientUnits="userSpaceOnUse"
     r="73.4363">
    <stop
       offset=".6723"
       stop-color="#ff9cbd"
       stop-opacity="0"
       id="stop5" />
    <stop
       offset="1"
       stop-color="#ff9cbd"
       id="stop6" />
  </radialGradient>
  <path
     d="m86.12 154.77c0-.09 0-.19 0-.28"
     fill="none"
     id="path6" />
  <g
     id="g11"
     transform="translate(0,-0.41027522)">
    <path
       d="M 120.77,11.74 C 113.07,14.68 89.52,21.37 64,21.39 38.48,21.37 14.93,14.68 7.23,11.74 5.81,11.2 4.36,12.58 4.48,14.09 11.14,31.72 35.28,50.73 64,50.77 c 28.72,-0.04 52.86,-19.06 59.52,-36.68 0.12,-1.51 -1.33,-2.89 -2.75,-2.35 z"
       fill="#424242"
       id="path7" />
    <path
       d="M 100.04,31.58 C 97.31,30.02 91.81,28.93 86.86,28.67 75.62,28.06 71.95,31.83 64,31.85 56.05,31.83 52.38,28.06 41.14,28.67 c -4.95,0.27 -10.45,1.36 -13.18,2.91 -5.26,3 -4.34,6.61 -0.53,8.88 9.93,5.91 22.68,12.15 35.68,12.17 0.3,0 0.59,-0.01 0.89,-0.02 0.3,0 0.59,0.02 0.89,0.02 13,-0.02 25.75,-6.26 35.68,-12.17 3.81,-2.27 4.72,-5.88 -0.53,-8.88 z"
       fill="#c41b59"
       id="path8" />
    <path
       d="M 110.89,76.66 C 107.84,46.64 102.7,38.94 97.42,36.13 90.72,32.57 84.45,33.11 81.05,33.81 c -9.28,1.93 -10.92,3.58 -15.72,3.58 -4.8,0 -7.33,-1.64 -16.6,-3.57 -3.4,-0.71 -9.67,-1.25 -16.37,2.32 -5.28,2.81 -10.42,10.51 -13.47,40.53 -2.04,20.05 11.73,40.53 45.97,40.53 h 0.03 c 0,0 0.02,0 0.03,0 34.24,-0.01 48,-20.49 45.97,-40.54 z"
       fill="url(#a)"
       id="path9"
       style="fill:url(#a)" />
    <path
       d="m 64,33.3 c -3.04,0 -22.45,-1.12 -16.55,0.31 6.95,1.69 9.34,5.7 11.88,11.55 4.67,10.74 3.44,38.04 5.3,38.23 1.86,0.2 3.59,-14.65 3.98,-32.63 C 68.91,36.93 77.87,33.57 83.42,33.35 83.43,33.36 67.04,33.3 64,33.3 Z"
       fill="url(#b)"
       id="path10"
       style="fill:url(#b)" />
    <path
       d="m 22.26,78.08 c 0,-15.55 6.61,7.48 42.6,7.48 35.99,0 42.12,-21.76 42.12,-6.22 0,15.54 -19.57,29.39 -42.12,29.39 -22.55,0 -42.6,-15.11 -42.6,-30.65 z"
       fill="url(#c)"
       opacity="0.75"
       id="path11"
       style="fill:url(#c)" />
  </g>
</svg>
